<svg xmlns="http://www.w3.org/2000/svg" xmlns:xlink="http://www.w3.org/1999/xlink" width="100" zoomAndPan="magnify" viewBox="0 0 75 74.999997" height="100" preserveAspectRatio="xMidYMid meet" version="1.0"><defs><clipPath id="e40ef5ebc1"><path d="M 4.253906 4.253906 L 70.746094 4.253906 L 70.746094 70.746094 L 4.253906 70.746094 Z M 4.253906 4.253906 " clip-rule="nonzero"/></clipPath><clipPath id="1ba2363d39"><path d="M 37.5 4.253906 C 19.136719 4.253906 4.253906 19.136719 4.253906 37.5 C 4.253906 55.863281 19.136719 70.746094 37.5 70.746094 C 55.863281 70.746094 70.746094 55.863281 70.746094 37.5 C 70.746094 19.136719 55.863281 4.253906 37.5 4.253906 Z M 37.5 4.253906 " clip-rule="nonzero"/></clipPath><clipPath id="489225d00c"><path d="M 0.253906 0.253906 L 66.746094 0.253906 L 66.746094 66.746094 L 0.253906 66.746094 Z M 0.253906 0.253906 " clip-rule="nonzero"/></clipPath><clipPath id="c7ba9a0c03"><path d="M 33.5 0.253906 C 15.136719 0.253906 0.253906 15.136719 0.253906 33.5 C 0.253906 51.863281 15.136719 66.746094 33.5 66.746094 C 51.863281 66.746094 66.746094 51.863281 66.746094 33.5 C 66.746094 15.136719 51.863281 0.253906 33.5 0.253906 Z M 33.5 0.253906 " clip-rule="nonzero"/></clipPath><clipPath id="09e34097bb"><rect x="0" width="67" y="0" height="67"/></clipPath></defs><g clip-path="url(#e40ef5ebc1)"><g clip-path="url(#1ba2363d39)"><g transform="matrix(1, 0, 0, 1, 4, 4)"><g clip-path="url(#09e34097bb)"><g clip-path="url(#489225d00c)"><g clip-path="url(#c7ba9a0c03)"><path fill="#2d2d2d" d="M 0.253906 0.253906 L 66.746094 0.253906 L 66.746094 66.746094 L 0.253906 66.746094 Z M 0.253906 0.253906 " fill-opacity="1" fill-rule="nonzero"/></g></g></g></g></g></g><path fill="#d1a954" d="M 23.863281 46.207031 L 51.363281 46.207031 L 51.363281 35.894531 L 23.863281 35.894531 Z M 46.207031 43.628906 C 46.921875 43.628906 47.53125 43.378906 48.03125 42.875 C 48.535156 42.375 48.785156 41.765625 48.785156 41.050781 C 48.785156 40.335938 48.535156 39.726562 48.03125 39.222656 C 47.53125 38.722656 46.921875 38.472656 46.207031 38.472656 C 45.492188 38.472656 44.882812 38.722656 44.378906 39.222656 C 43.878906 39.726562 43.628906 40.335938 43.628906 41.050781 C 43.628906 41.765625 43.878906 42.375 44.378906 42.875 C 44.882812 43.378906 45.492188 43.628906 46.207031 43.628906 Z M 54.800781 32.457031 L 49.945312 32.457031 L 46.507812 29.019531 L 28.71875 29.019531 L 25.28125 32.457031 L 20.425781 32.457031 L 26.3125 26.570312 C 26.628906 26.253906 26.992188 26.011719 27.40625 25.839844 C 27.824219 25.667969 28.261719 25.582031 28.71875 25.582031 L 46.507812 25.582031 C 46.964844 25.582031 47.402344 25.667969 47.816406 25.839844 C 48.234375 26.011719 48.597656 26.253906 48.914062 26.570312 Z M 23.863281 49.644531 C 22.917969 49.644531 22.109375 49.308594 21.433594 48.632812 C 20.761719 47.960938 20.425781 47.152344 20.425781 46.207031 L 20.425781 32.457031 L 54.800781 32.457031 L 54.800781 46.207031 C 54.800781 47.152344 54.464844 47.960938 53.789062 48.632812 C 53.117188 49.308594 52.308594 49.644531 51.363281 49.644531 Z M 23.863281 49.644531 " fill-opacity="1" fill-rule="nonzero"/></svg>