<svg xmlns="http://www.w3.org/2000/svg" xmlns:xlink="http://www.w3.org/1999/xlink" width="100" zoomAndPan="magnify" viewBox="0 0 75 74.999997" height="100" preserveAspectRatio="xMidYMid meet" version="1.0"><defs><clipPath id="80f498a27d"><path d="M 4.253906 4.253906 L 70.746094 4.253906 L 70.746094 70.746094 L 4.253906 70.746094 Z M 4.253906 4.253906 " clip-rule="nonzero"/></clipPath><clipPath id="39af0a30ad"><path d="M 37.5 4.253906 C 19.136719 4.253906 4.253906 19.136719 4.253906 37.5 C 4.253906 55.863281 19.136719 70.746094 37.5 70.746094 C 55.863281 70.746094 70.746094 55.863281 70.746094 37.5 C 70.746094 19.136719 55.863281 4.253906 37.5 4.253906 Z M 37.5 4.253906 " clip-rule="nonzero"/></clipPath><clipPath id="dccd25f102"><path d="M 0.253906 0.253906 L 66.746094 0.253906 L 66.746094 66.746094 L 0.253906 66.746094 Z M 0.253906 0.253906 " clip-rule="nonzero"/></clipPath><clipPath id="9b3a4075ed"><path d="M 33.5 0.253906 C 15.136719 0.253906 0.253906 15.136719 0.253906 33.5 C 0.253906 51.863281 15.136719 66.746094 33.5 66.746094 C 51.863281 66.746094 66.746094 51.863281 66.746094 33.5 C 66.746094 15.136719 51.863281 0.253906 33.5 0.253906 Z M 33.5 0.253906 " clip-rule="nonzero"/></clipPath><clipPath id="ed30e54eaf"><rect x="0" width="67" y="0" height="67"/></clipPath></defs><g clip-path="url(#80f498a27d)"><g clip-path="url(#39af0a30ad)"><g transform="matrix(1, 0, 0, 1, 4, 4)"><g clip-path="url(#ed30e54eaf)"><g clip-path="url(#dccd25f102)"><g clip-path="url(#9b3a4075ed)"><path fill="#2d2d2d" d="M 0.253906 0.253906 L 66.746094 0.253906 L 66.746094 66.746094 L 0.253906 66.746094 Z M 0.253906 0.253906 " fill-opacity="1" fill-rule="nonzero"/></g></g></g></g></g></g><path fill="#d1a954" d="M 51.363281 32.457031 L 51.363281 29.019531 C 51.363281 27.128906 49.816406 25.582031 47.925781 25.582031 L 42.769531 25.582031 C 42.769531 22.730469 40.464844 20.425781 37.613281 20.425781 C 34.761719 20.425781 32.457031 22.730469 32.457031 25.582031 L 27.300781 25.582031 C 25.410156 25.582031 23.863281 27.128906 23.863281 29.019531 L 23.863281 32.457031 C 21.011719 32.457031 18.707031 34.761719 18.707031 37.613281 C 18.707031 40.464844 21.011719 42.769531 23.863281 42.769531 L 23.863281 49.644531 C 23.863281 51.535156 25.410156 53.082031 27.300781 53.082031 L 47.925781 53.082031 C 49.816406 53.082031 51.363281 51.535156 51.363281 49.644531 L 51.363281 42.769531 C 54.214844 42.769531 56.519531 40.464844 56.519531 37.613281 C 56.519531 34.761719 54.214844 32.457031 51.363281 32.457031 Z M 47.925781 49.644531 L 27.300781 49.644531 L 27.300781 29.019531 L 47.925781 29.019531 Z M 32.457031 39.332031 C 31.03125 39.332031 29.878906 38.179688 29.878906 36.753906 C 29.878906 35.328125 31.03125 34.175781 32.457031 34.175781 C 33.882812 34.175781 35.035156 35.328125 35.035156 36.753906 C 35.035156 38.179688 33.882812 39.332031 32.457031 39.332031 Z M 45.347656 36.753906 C 45.347656 38.179688 44.195312 39.332031 42.769531 39.332031 C 41.34375 39.332031 40.191406 38.179688 40.191406 36.753906 C 40.191406 35.328125 41.34375 34.175781 42.769531 34.175781 C 44.195312 34.175781 45.347656 35.328125 45.347656 36.753906 Z M 30.738281 42.769531 L 44.488281 42.769531 L 44.488281 46.207031 L 30.738281 46.207031 Z M 30.738281 42.769531 " fill-opacity="1" fill-rule="nonzero"/></svg>