<svg xmlns="http://www.w3.org/2000/svg" xmlns:xlink="http://www.w3.org/1999/xlink" width="100" zoomAndPan="magnify" viewBox="0 0 75 74.999997" height="100" preserveAspectRatio="xMidYMid meet" version="1.0"><defs><clipPath id="943800536a"><path d="M 4.253906 4.253906 L 70.746094 4.253906 L 70.746094 70.746094 L 4.253906 70.746094 Z M 4.253906 4.253906 " clip-rule="nonzero"/></clipPath><clipPath id="1b176074b5"><path d="M 37.5 4.253906 C 19.136719 4.253906 4.253906 19.136719 4.253906 37.5 C 4.253906 55.863281 19.136719 70.746094 37.5 70.746094 C 55.863281 70.746094 70.746094 55.863281 70.746094 37.5 C 70.746094 19.136719 55.863281 4.253906 37.5 4.253906 Z M 37.5 4.253906 " clip-rule="nonzero"/></clipPath><clipPath id="e9d4d2d492"><path d="M 0.253906 0.253906 L 66.746094 0.253906 L 66.746094 66.746094 L 0.253906 66.746094 Z M 0.253906 0.253906 " clip-rule="nonzero"/></clipPath><clipPath id="2c5502702f"><path d="M 33.5 0.253906 C 15.136719 0.253906 0.253906 15.136719 0.253906 33.5 C 0.253906 51.863281 15.136719 66.746094 33.5 66.746094 C 51.863281 66.746094 66.746094 51.863281 66.746094 33.5 C 66.746094 15.136719 51.863281 0.253906 33.5 0.253906 Z M 33.5 0.253906 " clip-rule="nonzero"/></clipPath><clipPath id="75a2bd9bd6"><rect x="0" width="67" y="0" height="67"/></clipPath></defs><g clip-path="url(#943800536a)"><g clip-path="url(#1b176074b5)"><g transform="matrix(1, 0, 0, 1, 4, 4)"><g clip-path="url(#75a2bd9bd6)"><g clip-path="url(#e9d4d2d492)"><g clip-path="url(#2c5502702f)"><path fill="#2d2d2d" d="M 0.253906 0.253906 L 66.746094 0.253906 L 66.746094 66.746094 L 0.253906 66.746094 Z M 0.253906 0.253906 " fill-opacity="1" fill-rule="nonzero"/></g></g></g></g></g></g><path fill="#1b1b1b" d="M 29.019531 51.363281 C 27.585938 51.363281 26.371094 50.863281 25.367188 49.859375 C 24.363281 48.855469 23.863281 47.640625 23.863281 46.207031 L 19.566406 46.207031 L 20.339844 42.769531 L 25.195312 42.769531 C 25.683594 42.226562 26.253906 41.800781 26.914062 41.5 C 27.574219 41.199219 28.273438 41.050781 29.019531 41.050781 C 29.765625 41.050781 30.464844 41.199219 31.125 41.5 C 31.785156 41.800781 32.355469 42.226562 32.84375 42.769531 L 40.019531 42.769531 L 43.628906 27.300781 L 24.808594 27.300781 L 24.980469 26.570312 C 25.152344 25.769531 25.546875 25.117188 26.160156 24.613281 C 26.777344 24.113281 27.5 23.863281 28.332031 23.863281 L 47.925781 23.863281 L 46.335938 30.738281 L 51.363281 30.738281 L 56.519531 37.613281 L 54.800781 46.207031 L 51.363281 46.207031 C 51.363281 47.640625 50.863281 48.855469 49.859375 49.859375 C 48.855469 50.863281 47.640625 51.363281 46.207031 51.363281 C 44.773438 51.363281 43.558594 50.863281 42.554688 49.859375 C 41.550781 48.855469 41.050781 47.640625 41.050781 46.207031 L 34.175781 46.207031 C 34.175781 47.640625 33.675781 48.855469 32.671875 49.859375 C 31.667969 50.863281 30.453125 51.363281 29.019531 51.363281 Z M 44.359375 39.332031 L 52.652344 39.332031 L 52.824219 38.429688 L 49.644531 34.175781 L 45.5625 34.175781 Z M 43.542969 27.601562 L 43.628906 27.300781 L 40.019531 42.769531 L 40.105469 42.46875 L 41.566406 36.195312 Z M 17.847656 39.890625 L 18.707031 36.453125 L 28.160156 36.453125 L 27.300781 39.890625 Z M 21.285156 33.617188 L 22.144531 30.179688 L 33.316406 30.179688 L 32.457031 33.617188 Z M 29.019531 47.925781 C 29.507812 47.925781 29.914062 47.761719 30.242188 47.429688 C 30.574219 47.101562 30.738281 46.695312 30.738281 46.207031 C 30.738281 45.71875 30.574219 45.3125 30.242188 44.980469 C 29.914062 44.652344 29.507812 44.488281 29.019531 44.488281 C 28.53125 44.488281 28.125 44.652344 27.792969 44.980469 C 27.464844 45.3125 27.300781 45.71875 27.300781 46.207031 C 27.300781 46.695312 27.464844 47.101562 27.792969 47.429688 C 28.125 47.761719 28.53125 47.925781 29.019531 47.925781 Z M 46.207031 47.925781 C 46.695312 47.925781 47.101562 47.761719 47.429688 47.429688 C 47.761719 47.101562 47.925781 46.695312 47.925781 46.207031 C 47.925781 45.71875 47.761719 45.3125 47.429688 44.980469 C 47.101562 44.652344 46.695312 44.488281 46.207031 44.488281 C 45.71875 44.488281 45.3125 44.652344 44.980469 44.980469 C 44.652344 45.3125 44.488281 45.71875 44.488281 46.207031 C 44.488281 46.695312 44.652344 47.101562 44.980469 47.429688 C 45.3125 47.761719 45.71875 47.925781 46.207031 47.925781 Z M 46.207031 47.925781 " fill-opacity="1" fill-rule="nonzero"/><path fill="#0099ff" d="M 27.21875 51.363281 C 25.789062 51.363281 24.570312 50.863281 23.566406 49.859375 C 22.566406 48.855469 22.0625 47.640625 22.0625 46.207031 L 17.765625 46.207031 L 18.539062 42.769531 L 23.394531 42.769531 C 23.882812 42.226562 24.457031 41.800781 25.113281 41.5 C 25.773438 41.199219 26.476562 41.050781 27.21875 41.050781 C 27.964844 41.050781 28.667969 41.199219 29.324219 41.5 C 29.984375 41.800781 30.558594 42.226562 31.042969 42.769531 L 38.21875 42.769531 L 41.828125 27.300781 L 23.007812 27.300781 L 23.179688 26.570312 C 23.351562 25.769531 23.746094 25.117188 24.363281 24.613281 C 24.976562 24.113281 25.703125 23.863281 26.53125 23.863281 L 46.125 23.863281 L 44.535156 30.738281 L 49.5625 30.738281 L 54.71875 37.613281 L 53 46.207031 L 49.5625 46.207031 C 49.5625 47.640625 49.0625 48.855469 48.058594 49.859375 C 47.058594 50.863281 45.839844 51.363281 44.40625 51.363281 C 42.976562 51.363281 41.757812 50.863281 40.753906 49.859375 C 39.753906 48.855469 39.25 47.640625 39.25 46.207031 L 32.375 46.207031 C 32.375 47.640625 31.875 48.855469 30.871094 49.859375 C 29.871094 50.863281 28.652344 51.363281 27.21875 51.363281 Z M 42.558594 39.332031 L 50.851562 39.332031 L 51.023438 38.429688 L 47.84375 34.175781 L 43.761719 34.175781 Z M 41.742188 27.601562 L 41.828125 27.300781 L 38.21875 42.769531 L 38.304688 42.46875 L 39.765625 36.195312 Z M 16.046875 39.890625 L 16.90625 36.453125 L 26.359375 36.453125 L 25.5 39.890625 Z M 19.484375 33.617188 L 20.34375 30.179688 L 31.515625 30.179688 L 30.65625 33.617188 Z M 27.21875 47.925781 C 27.707031 47.925781 28.113281 47.761719 28.445312 47.429688 C 28.773438 47.101562 28.9375 46.695312 28.9375 46.207031 C 28.9375 45.71875 28.773438 45.3125 28.445312 44.980469 C 28.113281 44.652344 27.707031 44.488281 27.21875 44.488281 C 26.734375 44.488281 26.324219 44.652344 25.996094 44.980469 C 25.664062 45.3125 25.5 45.71875 25.5 46.207031 C 25.5 46.695312 25.664062 47.101562 25.996094 47.429688 C 26.324219 47.761719 26.734375 47.925781 27.21875 47.925781 Z M 44.40625 47.925781 C 44.894531 47.925781 45.300781 47.761719 45.632812 47.429688 C 45.960938 47.101562 46.125 46.695312 46.125 46.207031 C 46.125 45.71875 45.960938 45.3125 45.632812 44.980469 C 45.300781 44.652344 44.894531 44.488281 44.40625 44.488281 C 43.921875 44.488281 43.511719 44.652344 43.183594 44.980469 C 42.851562 45.3125 42.6875 45.71875 42.6875 46.207031 C 42.6875 46.695312 42.851562 47.101562 43.183594 47.429688 C 43.511719 47.761719 43.921875 47.925781 44.40625 47.925781 Z M 44.40625 47.925781 " fill-opacity="1" fill-rule="nonzero"/></svg>