<svg xmlns="http://www.w3.org/2000/svg" xmlns:xlink="http://www.w3.org/1999/xlink" width="100" zoomAndPan="magnify" viewBox="0 0 75 74.999997" height="100" preserveAspectRatio="xMidYMid meet" version="1.0"><defs><clipPath id="33f16978b7"><path d="M 4.253906 4.253906 L 70.746094 4.253906 L 70.746094 70.746094 L 4.253906 70.746094 Z M 4.253906 4.253906 " clip-rule="nonzero"/></clipPath><clipPath id="4e78a720e0"><path d="M 37.5 4.253906 C 19.136719 4.253906 4.253906 19.136719 4.253906 37.5 C 4.253906 55.863281 19.136719 70.746094 37.5 70.746094 C 55.863281 70.746094 70.746094 55.863281 70.746094 37.5 C 70.746094 19.136719 55.863281 4.253906 37.5 4.253906 Z M 37.5 4.253906 " clip-rule="nonzero"/></clipPath><clipPath id="3bf0968733"><path d="M 0.253906 0.253906 L 66.746094 0.253906 L 66.746094 66.746094 L 0.253906 66.746094 Z M 0.253906 0.253906 " clip-rule="nonzero"/></clipPath><clipPath id="983867ef3a"><path d="M 33.5 0.253906 C 15.136719 0.253906 0.253906 15.136719 0.253906 33.5 C 0.253906 51.863281 15.136719 66.746094 33.5 66.746094 C 51.863281 66.746094 66.746094 51.863281 66.746094 33.5 C 66.746094 15.136719 51.863281 0.253906 33.5 0.253906 Z M 33.5 0.253906 " clip-rule="nonzero"/></clipPath><clipPath id="26b8054db4"><rect x="0" width="67" y="0" height="67"/></clipPath></defs><g clip-path="url(#33f16978b7)"><g clip-path="url(#4e78a720e0)"><g transform="matrix(1, 0, 0, 1, 4, 4)"><g clip-path="url(#26b8054db4)"><g clip-path="url(#3bf0968733)"><g clip-path="url(#983867ef3a)"><path fill="#2d2d2d" d="M 0.253906 0.253906 L 66.746094 0.253906 L 66.746094 66.746094 L 0.253906 66.746094 Z M 0.253906 0.253906 " fill-opacity="1" fill-rule="nonzero"/></g></g></g></g></g></g><path fill="#d1a954" d="M 37.613281 41.050781 C 36.179688 41.050781 34.964844 40.550781 33.960938 39.546875 C 32.957031 38.542969 32.457031 37.328125 32.457031 35.894531 L 32.457031 25.582031 C 32.457031 24.148438 32.957031 22.933594 33.960938 21.929688 C 34.964844 20.925781 36.179688 20.425781 37.613281 20.425781 C 39.046875 20.425781 40.261719 20.925781 41.265625 21.929688 C 42.269531 22.933594 42.769531 24.148438 42.769531 25.582031 L 42.769531 35.894531 C 42.769531 37.328125 42.269531 38.542969 41.265625 39.546875 C 40.261719 40.550781 39.046875 41.050781 37.613281 41.050781 Z M 37.613281 30.738281 Z M 35.894531 53.082031 L 35.894531 47.796875 C 32.914062 47.394531 30.453125 46.0625 28.503906 43.800781 C 26.554688 41.539062 25.582031 38.902344 25.582031 35.894531 L 29.019531 35.894531 C 29.019531 38.273438 29.855469 40.296875 31.53125 41.972656 C 33.207031 43.648438 35.234375 44.488281 37.613281 44.488281 C 39.992188 44.488281 42.015625 43.648438 43.691406 41.972656 C 45.367188 40.296875 46.207031 38.273438 46.207031 35.894531 L 49.644531 35.894531 C 49.644531 38.902344 48.671875 41.539062 46.722656 43.800781 C 44.773438 46.0625 42.3125 47.394531 39.332031 47.796875 L 39.332031 53.082031 Z M 37.613281 37.613281 C 38.101562 37.613281 38.507812 37.449219 38.835938 37.117188 C 39.167969 36.789062 39.332031 36.382812 39.332031 35.894531 L 39.332031 25.582031 C 39.332031 25.09375 39.167969 24.6875 38.835938 24.355469 C 38.507812 24.027344 38.101562 23.863281 37.613281 23.863281 C 37.125 23.863281 36.71875 24.027344 36.386719 24.355469 C 36.058594 24.6875 35.894531 25.09375 35.894531 25.582031 L 35.894531 35.894531 C 35.894531 36.382812 36.058594 36.789062 36.386719 37.117188 C 36.71875 37.449219 37.125 37.613281 37.613281 37.613281 Z M 37.613281 37.613281 " fill-opacity="1" fill-rule="nonzero"/></svg>