<svg width="31" height="31" viewBox="0 0 31 31" fill="none" xmlns="http://www.w3.org/2000/svg">
<path d="M15.5002 3.875C14.5336 3.875 13.5674 4.24211 12.8322 4.97679L4.97735 12.8314C3.50755 14.3012 3.50755 16.6981 4.97735 18.1679L12.8322 26.023C14.3016 27.4923 16.6984 27.4923 18.1678 26.023L26.0227 18.1689C27.4924 16.699 27.4924 14.3021 26.0227 12.8323L18.1692 4.97679C17.434 4.24211 16.4669 3.875 15.5002 3.875ZM15.5002 4.80022C16.2265 4.80022 16.9533 5.07881 17.51 5.63553L21.7828 9.90943H21.1232C20.382 9.90943 19.6711 10.2039 19.147 10.7275V10.7284L15.994 13.8814C15.7173 14.1582 15.2822 14.1582 15.005 13.8814L11.8521 10.7284C11.3284 10.2043 10.618 9.90943 9.87681 9.90943H9.21622L13.491 5.63553C14.0477 5.07881 14.774 4.80022 15.4998 4.80022H15.5002ZM8.28496 10.8412H9.87728C10.3716 10.8412 10.8453 11.0373 11.1938 11.3862C11.1938 11.3862 11.1938 11.3867 11.1938 11.3872L14.3468 14.5402C14.9799 15.1728 16.0206 15.1728 16.6532 14.5402L19.8062 11.3872C20.1561 11.0378 20.6294 10.8412 21.1237 10.8412H22.715L25.3649 13.491C26.4787 14.6049 26.4787 16.3962 25.3649 17.5101L22.716 20.1591H21.1237C20.6294 20.1591 20.1561 19.9625 19.8062 19.6131L16.6532 16.46C16.3369 16.1437 15.9186 15.9858 15.5002 15.9858C15.0819 15.9858 14.6631 16.1437 14.3463 16.46L11.1933 19.6131C11.1933 19.6131 11.1933 19.6135 11.1933 19.614C10.8449 19.9629 10.3711 20.1591 9.87681 20.1591H8.28543L5.63561 17.5092C4.52173 16.3953 4.52173 14.604 5.63561 13.4901L8.2845 10.8412H8.28496ZM15.5002 16.911C15.6782 16.911 15.8562 16.98 15.9945 17.1183L19.1475 20.2713V20.2723C19.6716 20.7959 20.3825 21.0903 21.1237 21.0903H21.7842L17.5095 25.3642C16.3961 26.4777 14.6048 26.4777 13.4914 25.3642L9.21762 21.0903H9.87728C10.6185 21.0903 11.3294 20.7954 11.8525 20.2713L15.0055 17.1183C15.1438 16.98 15.3223 16.911 15.5002 16.911Z" fill="#06CB3F" stroke="#06CB3F" stroke-linejoin="round"/>
</svg>
