<svg xmlns="http://www.w3.org/2000/svg" xmlns:xlink="http://www.w3.org/1999/xlink" width="100" zoomAndPan="magnify" viewBox="0 0 75 74.999997" height="100" preserveAspectRatio="xMidYMid meet" version="1.0"><defs><clipPath id="1c1c539675"><path d="M 4.253906 4.253906 L 70.746094 4.253906 L 70.746094 70.746094 L 4.253906 70.746094 Z M 4.253906 4.253906 " clip-rule="nonzero"/></clipPath><clipPath id="d00e689e81"><path d="M 37.5 4.253906 C 19.136719 4.253906 4.253906 19.136719 4.253906 37.5 C 4.253906 55.863281 19.136719 70.746094 37.5 70.746094 C 55.863281 70.746094 70.746094 55.863281 70.746094 37.5 C 70.746094 19.136719 55.863281 4.253906 37.5 4.253906 Z M 37.5 4.253906 " clip-rule="nonzero"/></clipPath><clipPath id="bbb9ce6c46"><path d="M 0.253906 0.253906 L 66.746094 0.253906 L 66.746094 66.746094 L 0.253906 66.746094 Z M 0.253906 0.253906 " clip-rule="nonzero"/></clipPath><clipPath id="a8987c69e9"><path d="M 33.5 0.253906 C 15.136719 0.253906 0.253906 15.136719 0.253906 33.5 C 0.253906 51.863281 15.136719 66.746094 33.5 66.746094 C 51.863281 66.746094 66.746094 51.863281 66.746094 33.5 C 66.746094 15.136719 51.863281 0.253906 33.5 0.253906 Z M 33.5 0.253906 " clip-rule="nonzero"/></clipPath><clipPath id="6fd0aafc8b"><rect x="0" width="67" y="0" height="67"/></clipPath></defs><g clip-path="url(#1c1c539675)"><g clip-path="url(#d00e689e81)"><g transform="matrix(1, 0, 0, 1, 4, 4)"><g clip-path="url(#6fd0aafc8b)"><g clip-path="url(#bbb9ce6c46)"><g clip-path="url(#a8987c69e9)"><path fill="#2d2d2d" d="M 0.253906 0.253906 L 66.746094 0.253906 L 66.746094 66.746094 L 0.253906 66.746094 Z M 0.253906 0.253906 " fill-opacity="1" fill-rule="nonzero"/></g></g></g></g></g></g><path fill="#d1a954" d="M 38.472656 36.753906 L 41.050781 36.753906 L 41.050781 34.175781 L 42.769531 34.175781 L 42.769531 31.597656 L 41.050781 31.597656 L 41.050781 26.441406 L 38.472656 26.441406 L 38.472656 31.597656 L 35.894531 31.597656 L 35.894531 26.441406 L 33.316406 26.441406 L 33.316406 34.175781 L 38.472656 34.175781 Z M 27.300781 48.785156 L 29.878906 48.785156 L 29.878906 41.050781 L 31.597656 41.050781 L 31.597656 46.207031 L 34.175781 46.207031 L 34.175781 41.050781 L 35.894531 41.050781 L 35.894531 48.785156 L 38.472656 48.785156 L 38.472656 40.191406 C 38.472656 39.703125 38.308594 39.296875 37.976562 38.964844 C 37.648438 38.636719 37.242188 38.472656 36.753906 38.472656 L 29.019531 38.472656 C 28.53125 38.472656 28.125 38.636719 27.792969 38.964844 C 27.464844 39.296875 27.300781 39.703125 27.300781 40.191406 Z M 40.191406 48.785156 L 42.769531 48.785156 L 42.769531 46.207031 L 46.207031 46.207031 C 46.695312 46.207031 47.101562 46.042969 47.429688 45.710938 C 47.761719 45.382812 47.925781 44.976562 47.925781 44.488281 L 47.925781 40.191406 C 47.925781 39.703125 47.761719 39.296875 47.429688 38.964844 C 47.101562 38.636719 46.695312 38.472656 46.207031 38.472656 L 40.191406 38.472656 Z M 42.769531 43.628906 L 42.769531 41.050781 L 45.347656 41.050781 L 45.347656 43.628906 Z M 25.582031 53.082031 C 24.636719 53.082031 23.828125 52.746094 23.152344 52.070312 C 22.480469 51.398438 22.144531 50.589844 22.144531 49.644531 L 22.144531 25.582031 C 22.144531 24.636719 22.480469 23.828125 23.152344 23.152344 C 23.828125 22.480469 24.636719 22.144531 25.582031 22.144531 L 49.644531 22.144531 C 50.589844 22.144531 51.398438 22.480469 52.070312 23.152344 C 52.746094 23.828125 53.082031 24.636719 53.082031 25.582031 L 53.082031 49.644531 C 53.082031 50.589844 52.746094 51.398438 52.070312 52.070312 C 51.398438 52.746094 50.589844 53.082031 49.644531 53.082031 Z M 25.582031 49.644531 L 49.644531 49.644531 L 49.644531 25.582031 L 25.582031 25.582031 Z M 25.582031 25.582031 L 25.582031 49.644531 Z M 25.582031 25.582031 " fill-opacity="1" fill-rule="nonzero"/></svg>