<svg xmlns="http://www.w3.org/2000/svg" xmlns:xlink="http://www.w3.org/1999/xlink" width="100" zoomAndPan="magnify" viewBox="0 0 75 74.999997" height="100" preserveAspectRatio="xMidYMid meet" version="1.0"><defs><clipPath id="8457da0a3c"><path d="M 4.253906 4.253906 L 70.746094 4.253906 L 70.746094 70.746094 L 4.253906 70.746094 Z M 4.253906 4.253906 " clip-rule="nonzero"/></clipPath><clipPath id="4dba4ef9c5"><path d="M 37.5 4.253906 C 19.136719 4.253906 4.253906 19.136719 4.253906 37.5 C 4.253906 55.863281 19.136719 70.746094 37.5 70.746094 C 55.863281 70.746094 70.746094 55.863281 70.746094 37.5 C 70.746094 19.136719 55.863281 4.253906 37.5 4.253906 Z M 37.5 4.253906 " clip-rule="nonzero"/></clipPath><clipPath id="98dfed0a69"><path d="M 0.253906 0.253906 L 66.746094 0.253906 L 66.746094 66.746094 L 0.253906 66.746094 Z M 0.253906 0.253906 " clip-rule="nonzero"/></clipPath><clipPath id="2c86e2cbdd"><path d="M 33.5 0.253906 C 15.136719 0.253906 0.253906 15.136719 0.253906 33.5 C 0.253906 51.863281 15.136719 66.746094 33.5 66.746094 C 51.863281 66.746094 66.746094 51.863281 66.746094 33.5 C 66.746094 15.136719 51.863281 0.253906 33.5 0.253906 Z M 33.5 0.253906 " clip-rule="nonzero"/></clipPath><clipPath id="3b2a149fcc"><rect x="0" width="67" y="0" height="67"/></clipPath></defs><g clip-path="url(#8457da0a3c)"><g clip-path="url(#4dba4ef9c5)"><g transform="matrix(1, 0, 0, 1, 4, 4)"><g clip-path="url(#3b2a149fcc)"><g clip-path="url(#98dfed0a69)"><g clip-path="url(#2c86e2cbdd)"><path fill="#2d2d2d" d="M 0.253906 0.253906 L 66.746094 0.253906 L 66.746094 66.746094 L 0.253906 66.746094 Z M 0.253906 0.253906 " fill-opacity="1" fill-rule="nonzero"/></g></g></g></g></g></g><path fill="#d1a954" d="M 51.363281 22.144531 L 23.863281 22.144531 C 21.957031 22.144531 20.425781 23.675781 20.425781 25.582031 L 20.425781 46.207031 C 20.425781 48.097656 21.957031 49.644531 23.863281 49.644531 L 30.738281 49.644531 L 30.738281 53.082031 L 44.488281 53.082031 L 44.488281 49.644531 L 51.363281 49.644531 C 53.253906 49.644531 54.800781 48.097656 54.800781 46.207031 L 54.800781 25.582031 C 54.800781 23.675781 53.253906 22.144531 51.363281 22.144531 Z M 51.363281 46.207031 L 23.863281 46.207031 L 23.863281 25.582031 L 51.363281 25.582031 Z M 51.363281 46.207031 " fill-opacity="1" fill-rule="nonzero"/><path fill="#d1a954" d="M 28.160156 29.878906 L 32.457031 29.878906 L 32.457031 27.300781 L 25.582031 27.300781 L 25.582031 34.175781 L 28.160156 34.175781 Z M 28.160156 29.878906 " fill-opacity="1" fill-rule="nonzero"/><path fill="#d1a954" d="M 49.644531 37.613281 L 47.066406 37.613281 L 47.066406 41.910156 L 42.769531 41.910156 L 42.769531 44.488281 L 49.644531 44.488281 Z M 49.644531 37.613281 " fill-opacity="1" fill-rule="nonzero"/></svg>