<svg xmlns="http://www.w3.org/2000/svg" xmlns:xlink="http://www.w3.org/1999/xlink" width="100" zoomAndPan="magnify" viewBox="0 0 75 74.999997" height="100" preserveAspectRatio="xMidYMid meet" version="1.0"><defs><clipPath id="b9c9b5e571"><path d="M 4.253906 4.253906 L 70.746094 4.253906 L 70.746094 70.746094 L 4.253906 70.746094 Z M 4.253906 4.253906 " clip-rule="nonzero"/></clipPath><clipPath id="1a78e41d82"><path d="M 37.5 4.253906 C 19.136719 4.253906 4.253906 19.136719 4.253906 37.5 C 4.253906 55.863281 19.136719 70.746094 37.5 70.746094 C 55.863281 70.746094 70.746094 55.863281 70.746094 37.5 C 70.746094 19.136719 55.863281 4.253906 37.5 4.253906 Z M 37.5 4.253906 " clip-rule="nonzero"/></clipPath><clipPath id="ce6ca5f6a1"><path d="M 0.253906 0.253906 L 66.746094 0.253906 L 66.746094 66.746094 L 0.253906 66.746094 Z M 0.253906 0.253906 " clip-rule="nonzero"/></clipPath><clipPath id="7c8cebd60e"><path d="M 33.5 0.253906 C 15.136719 0.253906 0.253906 15.136719 0.253906 33.5 C 0.253906 51.863281 15.136719 66.746094 33.5 66.746094 C 51.863281 66.746094 66.746094 51.863281 66.746094 33.5 C 66.746094 15.136719 51.863281 0.253906 33.5 0.253906 Z M 33.5 0.253906 " clip-rule="nonzero"/></clipPath><clipPath id="17bf203a61"><rect x="0" width="67" y="0" height="67"/></clipPath></defs><g clip-path="url(#b9c9b5e571)"><g clip-path="url(#1a78e41d82)"><g transform="matrix(1, 0, 0, 1, 4, 4)"><g clip-path="url(#17bf203a61)"><g clip-path="url(#ce6ca5f6a1)"><g clip-path="url(#7c8cebd60e)"><path fill="#2d2d2d" d="M 0.253906 0.253906 L 66.746094 0.253906 L 66.746094 66.746094 L 0.253906 66.746094 Z M 0.253906 0.253906 " fill-opacity="1" fill-rule="nonzero"/></g></g></g></g></g></g><path fill="#d1a954" d="M 37.613281 54.800781 C 35.234375 54.800781 33.207031 53.960938 31.53125 52.285156 C 29.855469 50.609375 29.019531 48.585938 29.019531 46.207031 C 29.019531 44.832031 29.320312 43.550781 29.921875 42.359375 C 30.523438 41.171875 31.367188 40.164062 32.457031 39.332031 L 32.457031 25.582031 C 32.457031 24.148438 32.957031 22.933594 33.960938 21.929688 C 34.964844 20.925781 36.179688 20.425781 37.613281 20.425781 C 39.046875 20.425781 40.261719 20.925781 41.265625 21.929688 C 42.269531 22.933594 42.769531 24.148438 42.769531 25.582031 L 42.769531 39.332031 C 43.859375 40.164062 44.703125 41.171875 45.304688 42.359375 C 45.90625 43.550781 46.207031 44.832031 46.207031 46.207031 C 46.207031 48.585938 45.367188 50.609375 43.691406 52.285156 C 42.015625 53.960938 39.992188 54.800781 37.613281 54.800781 Z M 35.894531 35.894531 L 39.332031 35.894531 L 39.332031 34.175781 L 37.613281 34.175781 L 37.613281 32.457031 L 39.332031 32.457031 L 39.332031 29.019531 L 37.613281 29.019531 L 37.613281 27.300781 L 39.332031 27.300781 L 39.332031 25.582031 C 39.332031 25.09375 39.167969 24.6875 38.835938 24.355469 C 38.507812 24.027344 38.101562 23.863281 37.613281 23.863281 C 37.125 23.863281 36.71875 24.027344 36.386719 24.355469 C 36.058594 24.6875 35.894531 25.09375 35.894531 25.582031 Z M 35.894531 35.894531 " fill-opacity="1" fill-rule="nonzero"/></svg>