<svg xmlns="http://www.w3.org/2000/svg" xmlns:xlink="http://www.w3.org/1999/xlink" width="100" zoomAndPan="magnify" viewBox="0 0 75 74.999997" height="100" preserveAspectRatio="xMidYMid meet" version="1.0"><defs><clipPath id="0575a30472"><path d="M 4.253906 4.253906 L 70.746094 4.253906 L 70.746094 70.746094 L 4.253906 70.746094 Z M 4.253906 4.253906 " clip-rule="nonzero"/></clipPath><clipPath id="275bde1d28"><path d="M 37.5 4.253906 C 19.136719 4.253906 4.253906 19.136719 4.253906 37.5 C 4.253906 55.863281 19.136719 70.746094 37.5 70.746094 C 55.863281 70.746094 70.746094 55.863281 70.746094 37.5 C 70.746094 19.136719 55.863281 4.253906 37.5 4.253906 Z M 37.5 4.253906 " clip-rule="nonzero"/></clipPath><clipPath id="f8774f2f38"><path d="M 0.253906 0.253906 L 66.746094 0.253906 L 66.746094 66.746094 L 0.253906 66.746094 Z M 0.253906 0.253906 " clip-rule="nonzero"/></clipPath><clipPath id="6ad8126e56"><path d="M 33.5 0.253906 C 15.136719 0.253906 0.253906 15.136719 0.253906 33.5 C 0.253906 51.863281 15.136719 66.746094 33.5 66.746094 C 51.863281 66.746094 66.746094 51.863281 66.746094 33.5 C 66.746094 15.136719 51.863281 0.253906 33.5 0.253906 Z M 33.5 0.253906 " clip-rule="nonzero"/></clipPath><clipPath id="ad36f0cc8f"><rect x="0" width="67" y="0" height="67"/></clipPath><clipPath id="c40b469701"><path d="M 16.988281 23 L 58.238281 23 L 58.238281 54 L 16.988281 54 Z M 16.988281 23 " clip-rule="nonzero"/></clipPath></defs><g clip-path="url(#0575a30472)"><g clip-path="url(#275bde1d28)"><g transform="matrix(1, 0, 0, 1, 4, 4)"><g clip-path="url(#ad36f0cc8f)"><g clip-path="url(#f8774f2f38)"><g clip-path="url(#6ad8126e56)"><path fill="#2d2d2d" d="M 0.253906 0.253906 L 66.746094 0.253906 L 66.746094 66.746094 L 0.253906 66.746094 Z M 0.253906 0.253906 " fill-opacity="1" fill-rule="nonzero"/></g></g></g></g></g></g><g clip-path="url(#c40b469701)"><path fill="#d1a954" d="M 37.613281 53.082031 C 36.410156 53.082031 35.394531 52.667969 34.5625 51.835938 C 33.730469 51.003906 33.316406 49.988281 33.316406 48.785156 C 33.316406 47.582031 33.730469 46.566406 34.5625 45.734375 C 35.394531 44.902344 36.410156 44.488281 37.613281 44.488281 C 38.816406 44.488281 39.832031 44.902344 40.664062 45.734375 C 41.496094 46.566406 41.910156 47.582031 41.910156 48.785156 C 41.910156 49.988281 41.496094 51.003906 40.664062 51.835938 C 39.832031 52.667969 38.816406 53.082031 37.613281 53.082031 Z M 27.902344 43.371094 L 24.292969 39.675781 C 25.984375 37.984375 27.964844 36.644531 30.242188 35.65625 C 32.519531 34.667969 34.976562 34.175781 37.613281 34.175781 C 40.25 34.175781 42.703125 34.675781 44.980469 35.679688 C 47.257812 36.683594 49.242188 38.042969 50.933594 39.761719 L 47.324219 43.371094 C 46.0625 42.109375 44.601562 41.121094 42.941406 40.40625 C 41.28125 39.691406 39.503906 39.332031 37.613281 39.332031 C 35.722656 39.332031 33.945312 39.691406 32.285156 40.40625 C 30.625 41.121094 29.164062 42.109375 27.902344 43.371094 Z M 20.597656 36.066406 L 16.988281 32.457031 C 19.625 29.765625 22.703125 27.660156 26.226562 26.140625 C 29.75 24.621094 33.546875 23.863281 37.613281 23.863281 C 41.679688 23.863281 45.476562 24.621094 49 26.140625 C 52.523438 27.660156 55.601562 29.765625 58.238281 32.457031 L 54.628906 36.066406 C 52.421875 33.859375 49.867188 32.132812 46.957031 30.886719 C 44.050781 29.640625 40.9375 29.019531 37.613281 29.019531 C 34.289062 29.019531 31.175781 29.640625 28.265625 30.886719 C 25.359375 32.132812 22.804688 33.859375 20.597656 36.066406 Z M 20.597656 36.066406 " fill-opacity="1" fill-rule="nonzero"/></g></svg>